<?xml version="1.0" encoding="UTF-8"?>
<svg version="1.1" viewBox="0 0 2103.5 2229.8" xmlns="http://www.w3.org/2000/svg">
<defs>
<linearGradient id="a" x1="279.94" x2="1968.6" y1="264.74" y2="1975.2" gradientTransform="matrix(.92421 .3734 -.37581 .93017 373.55 -346.71)" gradientUnits="userSpaceOnUse">
<stop stop-color="#FF8F71" offset="0"/>
<stop stop-color="#FF3E55" offset="1"/>
</linearGradient>
</defs>
<path d="m1756.1 1498.7-295.34 731-729.48-294.73 257.88-638.28c20.689-51.206 78.973-75.946 130.18-55.258l636.76 257.27zm-1214.6-491.99c201.44 81.387 298.76 310.66 217.37 512.1l-0.6162 1.5252c-81.387 201.44-310.66 298.76-512.1 217.37-201.44-81.387-298.76-310.66-217.37-512.1l0.61623-1.5252c81.387-201.44 310.66-298.76 512.1-217.37zm710.7-712.03-257.88 638.28c-20.69 51.208-78.972 75.947-130.18 55.258l-636.76-257.27 295.34-731zm851.37 343.98-295.34 731-636.76-257.27c-51.206-20.689-75.947-78.972-55.258-130.18l257.88-638.28z" fill="url(#a)" fill-rule="evenodd"/>
</svg>
