<?xml version="1.0" encoding="UTF-8"?>
<svg version="1.1" viewBox="0 0 455 542.5" xmlns="http://www.w3.org/2000/svg" xmlns:xlink="http://www.w3.org/1999/xlink">
<defs>
<filter id="af" x="-.21999" y="-.11026" width="1.44" height="1.2665">
<feOffset dy="20" in="SourceAlpha" result="shadowOffsetOuter1"/>
<feGaussianBlur in="shadowOffsetOuter1" result="shadowBlurOuter1" stdDeviation="20"/>
<feColorMatrix in="shadowBlurOuter1" values="0 0 0 0 0.421821759 0 0 0 0 0.554338424 0 0 0 0 0.893710371 0 0 0 0.243444056 0"/>
</filter>
<filter id="ad" x="-.14402" y="-.41067" width="1.288" height="1.9925">
<feOffset dy="10" in="SourceAlpha" result="shadowOffsetOuter1"/>
<feGaussianBlur in="shadowOffsetOuter1" result="shadowBlurOuter1" stdDeviation="10"/>
<feColorMatrix in="shadowBlurOuter1" values="0 0 0 0 0.421821759 0 0 0 0 0.554338424 0 0 0 0 0.893710371 0 0 0 0.243444056 0"/>
</filter>
<filter id="ac" x="-.14402" y="-.41067" width="1.288" height="1.9925">
<feOffset dy="10" in="SourceAlpha" result="shadowOffsetOuter1"/>
<feGaussianBlur in="shadowOffsetOuter1" result="shadowBlurOuter1" stdDeviation="10"/>
<feColorMatrix in="shadowBlurOuter1" values="0 0 0 0 0.421821759 0 0 0 0 0.554338424 0 0 0 0 0.893710371 0 0 0 0.243444056 0"/>
</filter>
<filter id="ab" x="-.14402" y="-.41067" width="1.288" height="1.9925">
<feOffset dy="10" in="SourceAlpha" result="shadowOffsetOuter1"/>
<feGaussianBlur in="shadowOffsetOuter1" result="shadowBlurOuter1" stdDeviation="10"/>
<feColorMatrix in="shadowBlurOuter1" values="0 0 0 0 0.421821759 0 0 0 0 0.554338424 0 0 0 0 0.893710371 0 0 0 0.243444056 0"/>
</filter>
<filter id="aa" x="-.14402" y="-.41067" width="1.288" height="1.9925">
<feOffset dy="10" in="SourceAlpha" result="shadowOffsetOuter1"/>
<feGaussianBlur in="shadowOffsetOuter1" result="shadowBlurOuter1" stdDeviation="10"/>
<feColorMatrix in="shadowBlurOuter1" values="0 0 0 0 0.421821759 0 0 0 0 0.554338424 0 0 0 0 0.893710371 0 0 0 0.243444056 0"/>
</filter>
<filter id="z" x="-.14402" y="-.41067" width="1.288" height="1.9925">
<feOffset dy="10" in="SourceAlpha" result="shadowOffsetOuter1"/>
<feGaussianBlur in="shadowOffsetOuter1" result="shadowBlurOuter1" stdDeviation="10"/>
<feColorMatrix in="shadowBlurOuter1" values="0 0 0 0 0.421821759 0 0 0 0 0.554338424 0 0 0 0 0.893710371 0 0 0 0.243444056 0"/>
</filter>
<filter id="y" x="-.21999" y="-.11026" width="1.44" height="1.2665">
<feOffset dy="20" in="SourceAlpha" result="shadowOffsetOuter1"/>
<feGaussianBlur in="shadowOffsetOuter1" result="shadowBlurOuter1" stdDeviation="20"/>
<feColorMatrix in="shadowBlurOuter1" values="0 0 0 0 0.421821759 0 0 0 0 0.554338424 0 0 0 0 0.893710371 0 0 0 0.243444056 0"/>
</filter>
<rect id="w" width="166.65" height="58.441" rx="4"/>
<rect id="v" y="72.397" width="166.65" height="58.441" rx="4"/>
<rect id="u" y="144.79" width="166.65" height="58.441" rx="4"/>
<rect id="t" y="217.19" width="166.65" height="58.441" rx="4"/>
<rect id="r" y="289.59" width="166.65" height="58.441" rx="4"/>
<linearGradient id="ag" x1=".38371" x2=".61629" y2="1">
<stop stop-color="#FF8F71" offset="0"/>
<stop stop-color="#FF3E55" offset="1"/>
</linearGradient>
<linearGradient id="ae" x1="9.3312" x2="127.11" y1="67.754" y2="85.393" gradientTransform="scale(1.6075 .62208)" gradientUnits="userSpaceOnUse">
<stop stop-color="#FF8F71" offset="0"/>
<stop stop-color="#FF3E55" offset="1"/>
</linearGradient>
<path id="x" d="m204.44 401.89c0 10.587-7.815 19.708-18.398 19.708h-150.92c-10.584 0-19.786-9.121-19.786-19.708v-371.84c0-10.587 9.202-18.327 19.786-18.327h17.447c3.689 0 5.051-0.422 5.275 4.255 0.116 2.43 1.007 4.318 2.435 5.881 1.426 1.534 3.39 2.794 5.646 3.501 1.531 0.48 3.236 0.914 4.861 0.914h79.751c1.626 0 3.33-0.534 4.861-1.013 2.258-0.707 4.22-1.887 5.647-3.392 1.428-1.535 2.319-3.344 2.434-5.773 0.223-4.676 1.587-4.373 5.276-4.373h17.285c10.583 0 18.398 7.74 18.398 18.327zm-105.6-388.34h23.637c1.004 0 1.819 0.622 1.819 1.515s-0.815 1.516-1.819 1.516h-23.637c-1.005 0-1.818-0.623-1.818-1.516s0.813-1.515 1.818-1.515zm36.063 0.522a2.653 2.653 0 1 1-5.306 0 2.653 2.653 0 0 1 5.306 0zm81.048 84.968v-67.786c0-17.144-13.893-31.042-31.032-31.042h-150.78c-17.677 0-32.142 14.47-32.142 32.155v24.839a1.819 1.819 0 0 0-1.819 1.818v12.733a1.82 1.82 0 0 0 1.819 1.82v15.157a1.82 1.82 0 0 0-1.819 1.82v27.284a1.82 1.82 0 0 0 1.819 1.818v9.095a1.82 1.82 0 0 0-1.819 1.818v27.285a1.82 1.82 0 0 0 1.819 1.82v243.62c0 17.74 14.509 32.257 32.243 32.257h150.68c17.067 0 31.032-13.97 31.032-31.043v-255.14h0.605a1.819 1.819 0 0 0 1.82-1.819v-46.685c0-1.005-0.814-1.82-1.82-1.82z"/>
<path id="q" d="m204.44 401.89c0 10.587-7.815 19.708-18.398 19.708h-150.92c-10.584 0-19.786-9.121-19.786-19.708v-371.84c0-10.587 9.202-18.327 19.786-18.327h17.447c3.689 0 5.051-0.422 5.275 4.255 0.116 2.43 1.007 4.318 2.435 5.881 1.426 1.534 3.39 2.794 5.646 3.501 1.531 0.48 3.236 0.914 4.861 0.914h79.751c1.626 0 3.33-0.534 4.861-1.013 2.258-0.707 4.22-1.887 5.647-3.392 1.428-1.535 2.319-3.344 2.434-5.773 0.223-4.676 1.587-4.373 5.276-4.373h17.285c10.583 0 18.398 7.74 18.398 18.327zm-105.6-388.34h23.637c1.004 0 1.819 0.622 1.819 1.515s-0.815 1.516-1.819 1.516h-23.637c-1.005 0-1.818-0.623-1.818-1.516s0.813-1.515 1.818-1.515zm36.063 0.522a2.653 2.653 0 1 1-5.306 0 2.653 2.653 0 0 1 5.306 0zm81.048 84.968v-67.786c0-17.144-13.893-31.042-31.032-31.042h-150.78c-17.677 0-32.142 14.47-32.142 32.155v24.839a1.819 1.819 0 0 0-1.819 1.818v12.733a1.82 1.82 0 0 0 1.819 1.82v15.157a1.82 1.82 0 0 0-1.819 1.82v27.284a1.82 1.82 0 0 0 1.819 1.818v9.095a1.82 1.82 0 0 0-1.819 1.818v27.285a1.82 1.82 0 0 0 1.819 1.82v243.62c0 17.74 14.509 32.257 32.243 32.257h150.68c17.067 0 31.032-13.97 31.032-31.043v-255.14h0.605a1.819 1.819 0 0 0 1.82-1.819v-46.685c0-1.005-0.814-1.82-1.82-1.82z"/>
<linearGradient id="s" x1="124.24" x2="192.56" y1="3.4723" y2="297.23" gradientTransform="scale(.69446 1.44)" gradientUnits="userSpaceOnUse" xlink:href="#ag"/>
</defs>
<g transform="translate(7.813 27.788)" fill="none" fill-rule="evenodd">
<g transform="translate(-7.91,-27.947)">
<rect x="8" y="5" width="204" height="423" rx="22" fill="url(#s)"/>
<path d="m65 227.56v-25.278h9.316c1.734 0 3.232 0.267 4.496 0.8 1.264 0.535 2.239 1.294 2.925 2.28 0.686 0.984 1.03 2.141 1.03 3.47 0 1.21-0.266 2.273-0.795 3.187a5.63 5.63 0 0 1-2.24 2.154c1.3 0.498 2.312 1.287 3.034 2.367s1.083 2.356 1.083 3.828c0 1.471-0.385 2.74-1.155 3.809-0.77 1.068-1.854 1.899-3.25 2.492s-3.045 0.89-4.947 0.89h-9.497zm5.2-20.9v5.804h3.539c1.18 0 2.088-0.243 2.726-0.73s0.957-1.205 0.957-2.154c0-0.95-0.32-1.673-0.957-2.172-0.638-0.498-1.547-0.747-2.726-0.747h-3.54zm0 16.52h4.044c1.348 0 2.39-0.285 3.124-0.854 0.734-0.57 1.101-1.389 1.101-2.457s-0.367-1.887-1.101-2.456c-0.735-0.57-1.776-0.855-3.124-0.855h-4.044zm16.863 4.38v-26.56h5.056v26.56zm18.272 0.533c-1.42 0-2.732-0.249-3.936-0.747a9.577 9.577 0 0 1-3.142-2.083 9.438 9.438 0 0 1-2.076-3.151c-0.494-1.21-0.74-2.528-0.74-3.952s0.252-2.735 0.758-3.934a9.78 9.78 0 0 1 2.112-3.15 9.594 9.594 0 0 1 3.178-2.101c1.216-0.499 2.546-0.748 3.99-0.748 1.42 0 2.733 0.25 3.936 0.748a9.577 9.577 0 0 1 3.142 2.083 9.482 9.482 0 0 1 2.076 3.133c0.494 1.198 0.74 2.51 0.74 3.934s-0.252 2.741-0.758 3.951a9.73 9.73 0 0 1-2.112 3.169 9.594 9.594 0 0 1-3.178 2.1c-1.216 0.499-2.546 0.748-3.99 0.748zm0.072-4.486c0.915 0 1.733-0.237 2.456-0.712 0.722-0.474 1.293-1.121 1.715-1.94 0.421-0.819 0.632-1.75 0.632-2.795 0-1.044-0.211-1.976-0.632-2.795-0.422-0.818-0.993-1.465-1.715-1.94-0.723-0.475-1.541-0.712-2.456-0.712s-1.733 0.237-2.455 0.712c-0.723 0.475-1.294 1.122-1.716 1.94-0.42 0.82-0.632 1.75-0.632 2.795s0.211 1.976 0.632 2.795c0.422 0.819 0.993 1.466 1.716 1.94 0.722 0.475 1.54 0.712 2.455 0.712zm21.124 3.418a8.081 8.081 0 0 1-3.376-0.712 8.295 8.295 0 0 1-2.726-1.976 9.246 9.246 0 0 1-1.806-2.955c-0.433-1.127-0.65-2.344-0.65-3.649 0-1.353 0.223-2.605 0.668-3.756a9.131 9.131 0 0 1 1.878-3.008 8.894 8.894 0 0 1 2.817-2.012c1.07-0.486 2.232-0.73 3.484-0.73 1.228 0 2.335 0.244 3.322 0.73a6.447 6.447 0 0 1 2.456 2.118l0.108-2.314h4.658v16.555c0 1.448-0.234 2.765-0.704 3.952a8.774 8.774 0 0 1-2.004 3.062 8.961 8.961 0 0 1-3.087 1.976c-1.192 0.463-2.51 0.694-3.954 0.694-1.42 0-2.697-0.22-3.828-0.659a9.174 9.174 0 0 1-2.961-1.833 8.656 8.656 0 0 1-1.986-2.742l4.839-1.174a4.737 4.737 0 0 0 1.679 1.62c0.686 0.391 1.462 0.587 2.329 0.587 0.939 0 1.751-0.208 2.437-0.623a4.283 4.283 0 0 0 1.607-1.745c0.385-0.747 0.578-1.62 0.578-2.616v-1.531a6.795 6.795 0 0 1-2.474 2.011c-0.999 0.487-2.1 0.73-3.304 0.73zm1.228-4.415c0.89 0 1.68-0.22 2.365-0.658a4.816 4.816 0 0 0 1.643-1.78c0.41-0.748 0.614-1.596 0.614-2.546s-0.204-1.798-0.614-2.545a4.816 4.816 0 0 0-1.643-1.78c-0.686-0.44-1.474-0.66-2.365-0.66-0.89 0-1.679 0.22-2.365 0.66a4.816 4.816 0 0 0-1.643 1.78c-0.41 0.747-0.614 1.596-0.614 2.545 0 0.95 0.205 1.798 0.614 2.546 0.41 0.747 0.957 1.34 1.643 1.78 0.686 0.439 1.474 0.658 2.365 0.658zm13.65 4.95v-18.8h4.658l0.18 2.848c0.482-0.996 1.132-1.762 1.95-2.296 0.819-0.534 1.782-0.801 2.89-0.801 0.336 0 0.673 0.03 1.01 0.089 0.337 0.06 0.638 0.137 0.903 0.231l-0.542 4.914a3.86 3.86 0 0 0-0.812-0.196 6.647 6.647 0 0 0-0.849-0.054c-1.396 0-2.467 0.422-3.213 1.264-0.747 0.843-1.12 2.035-1.12 3.578v9.221h-5.055z" fill="#fff" fill-rule="nonzero"/>

<use width="100%" height="100%" fill="#1d1d25" xlink:href="#x"/>
<path d="m122.48 13.55h-23.637c-1.005 0-1.819 0.624-1.819 1.517 0 0.892 0.814 1.515 1.82 1.515h23.636c1.005 0 1.82-0.623 1.82-1.515 0-0.893-0.815-1.517-1.82-1.517m9.774-2.13a2.653 2.653 0 1 0 2e-3 5.306 2.653 2.653 0 0 0-2e-3 -5.306" fill="#000"/>
</g>
<g transform="translate(228.75 78.779)">
<rect x="8" y="5" width="204" height="423" rx="22" fill="url(#s)"/>
<rect x="15" y="11" width="189.34" height="414.32" rx="22" fill="#fff"/>
<rect x="15" y="11" width="189.34" height="73.269" rx="22" fill="url(#ae)"/>
<g transform="translate(26.343,57.23)">
<use width="100%" height="100%" fill="#000000" filter="url(#ad)" xlink:href="#w"/>
<use width="100%" height="100%" fill="#ffffff" xlink:href="#w"/>
</g>
<g transform="translate(26.343,57.23)">
<use width="100%" height="100%" fill="#000000" filter="url(#ac)" xlink:href="#v"/>
<use width="100%" height="100%" fill="#ffffff" xlink:href="#v"/>
</g>
<g transform="translate(26.343,57.23)">
<use width="100%" height="100%" fill="#000000" filter="url(#ab)" xlink:href="#u"/>
<use width="100%" height="100%" fill="#ffffff" xlink:href="#u"/>
</g>
<g transform="translate(26.343,57.23)">
<use width="100%" height="100%" fill="#000000" filter="url(#aa)" xlink:href="#t"/>
<use width="100%" height="100%" fill="#ffffff" xlink:href="#t"/>
</g>
<g transform="translate(26.343,57.23)">
<use width="100%" height="100%" fill="#000000" filter="url(#z)" xlink:href="#r"/>
<use width="100%" height="100%" fill="#ffffff" xlink:href="#r"/>
</g>
<path d="m65 227.56v-25.278h9.316c1.734 0 3.232 0.267 4.496 0.8 1.264 0.535 2.239 1.294 2.925 2.28 0.686 0.984 1.03 2.141 1.03 3.47 0 1.21-0.266 2.273-0.795 3.187a5.63 5.63 0 0 1-2.24 2.154c1.3 0.498 2.312 1.287 3.034 2.367s1.083 2.356 1.083 3.828c0 1.471-0.385 2.74-1.155 3.809-0.77 1.068-1.854 1.899-3.25 2.492s-3.045 0.89-4.947 0.89h-9.497zm5.2-20.9v5.804h3.539c1.18 0 2.088-0.243 2.726-0.73s0.957-1.205 0.957-2.154c0-0.95-0.32-1.673-0.957-2.172-0.638-0.498-1.547-0.747-2.726-0.747h-3.54zm0 16.52h4.044c1.348 0 2.39-0.285 3.124-0.854 0.734-0.57 1.101-1.389 1.101-2.457s-0.367-1.887-1.101-2.456c-0.735-0.57-1.776-0.855-3.124-0.855h-4.044zm16.863 4.38v-26.56h5.056v26.56zm18.272 0.533c-1.42 0-2.732-0.249-3.936-0.747a9.577 9.577 0 0 1-3.142-2.083 9.438 9.438 0 0 1-2.076-3.151c-0.494-1.21-0.74-2.528-0.74-3.952s0.252-2.735 0.758-3.934a9.78 9.78 0 0 1 2.112-3.15 9.594 9.594 0 0 1 3.178-2.101c1.216-0.499 2.546-0.748 3.99-0.748 1.42 0 2.733 0.25 3.936 0.748a9.577 9.577 0 0 1 3.142 2.083 9.482 9.482 0 0 1 2.076 3.133c0.494 1.198 0.74 2.51 0.74 3.934s-0.252 2.741-0.758 3.951a9.73 9.73 0 0 1-2.112 3.169 9.594 9.594 0 0 1-3.178 2.1c-1.216 0.499-2.546 0.748-3.99 0.748zm0.072-4.486c0.915 0 1.733-0.237 2.456-0.712 0.722-0.474 1.293-1.121 1.715-1.94 0.421-0.819 0.632-1.75 0.632-2.795 0-1.044-0.211-1.976-0.632-2.795-0.422-0.818-0.993-1.465-1.715-1.94-0.723-0.475-1.541-0.712-2.456-0.712s-1.733 0.237-2.455 0.712c-0.723 0.475-1.294 1.122-1.716 1.94-0.42 0.82-0.632 1.75-0.632 2.795s0.211 1.976 0.632 2.795c0.422 0.819 0.993 1.466 1.716 1.94 0.722 0.475 1.54 0.712 2.455 0.712zm21.124 3.418a8.081 8.081 0 0 1-3.376-0.712 8.295 8.295 0 0 1-2.726-1.976 9.246 9.246 0 0 1-1.806-2.955c-0.433-1.127-0.65-2.344-0.65-3.649 0-1.353 0.223-2.605 0.668-3.756a9.131 9.131 0 0 1 1.878-3.008 8.894 8.894 0 0 1 2.817-2.012c1.07-0.486 2.232-0.73 3.484-0.73 1.228 0 2.335 0.244 3.322 0.73a6.447 6.447 0 0 1 2.456 2.118l0.108-2.314h4.658v16.555c0 1.448-0.234 2.765-0.704 3.952a8.774 8.774 0 0 1-2.004 3.062 8.961 8.961 0 0 1-3.087 1.976c-1.192 0.463-2.51 0.694-3.954 0.694-1.42 0-2.697-0.22-3.828-0.659a9.174 9.174 0 0 1-2.961-1.833 8.656 8.656 0 0 1-1.986-2.742l4.839-1.174a4.737 4.737 0 0 0 1.679 1.62c0.686 0.391 1.462 0.587 2.329 0.587 0.939 0 1.751-0.208 2.437-0.623a4.283 4.283 0 0 0 1.607-1.745c0.385-0.747 0.578-1.62 0.578-2.616v-1.531a6.795 6.795 0 0 1-2.474 2.011c-0.999 0.487-2.1 0.73-3.304 0.73zm1.228-4.415c0.89 0 1.68-0.22 2.365-0.658a4.816 4.816 0 0 0 1.643-1.78c0.41-0.748 0.614-1.596 0.614-2.546s-0.204-1.798-0.614-2.545a4.816 4.816 0 0 0-1.643-1.78c-0.686-0.44-1.474-0.66-2.365-0.66-0.89 0-1.679 0.22-2.365 0.66a4.816 4.816 0 0 0-1.643 1.78c-0.41 0.747-0.614 1.596-0.614 2.545 0 0.95 0.205 1.798 0.614 2.546 0.41 0.747 0.957 1.34 1.643 1.78 0.686 0.439 1.474 0.658 2.365 0.658zm13.65 4.95v-18.8h4.658l0.18 2.848c0.482-0.996 1.132-1.762 1.95-2.296 0.819-0.534 1.782-0.801 2.89-0.801 0.336 0 0.673 0.03 1.01 0.089 0.337 0.06 0.638 0.137 0.903 0.231l-0.542 4.914a3.86 3.86 0 0 0-0.812-0.196 6.647 6.647 0 0 0-0.849-0.054c-1.396 0-2.467 0.422-3.213 1.264-0.747 0.843-1.12 2.035-1.12 3.578v9.221h-5.055z" fill="#fff" fill-rule="nonzero"/>

<use width="100%" height="100%" fill="#1d1d25" xlink:href="#q"/>
<path d="m122.48 13.55h-23.637c-1.005 0-1.819 0.624-1.819 1.517 0 0.892 0.814 1.515 1.82 1.515h23.636c1.005 0 1.82-0.623 1.82-1.515 0-0.893-0.815-1.517-1.82-1.517m9.774-2.13a2.653 2.653 0 1 0 2e-3 5.306 2.653 2.653 0 0 0-2e-3 -5.306" fill="#000"/>
</g>
</g>
</svg>
